<svg width="154" height="40" viewBox="0 0 154 40" fill="none" xmlns="http://www.w3.org/2000/svg">
<path d="M49.8333 29.8572V10.6428H53.3399V20.6498L52.3859 20.3145L60.5596 10.6428H64.9687L57.3107 19.7213L57.517 17.2453L65.2008 29.8572H61.0753L55.9184 21.3977L53.3399 24.4668V29.8572H49.8333Z" fill="#404040"/>
<path d="M73.1795 30.1667C71.7699 30.1667 70.4549 29.9174 69.2344 29.4187C68.014 28.9201 66.9482 28.2237 66.0372 27.3296C65.1261 26.4356 64.4128 25.3867 63.8971 24.1831C63.3986 22.9624 63.1493 21.647 63.1493 20.2371C63.1493 18.81 63.3986 17.4947 63.8971 16.2911C64.3956 15.0875 65.1003 14.0386 66.0114 13.1446C66.9224 12.2505 67.9882 11.5627 69.2087 11.0813C70.4291 10.5826 71.7527 10.3333 73.1795 10.3333C74.6062 10.3333 75.9298 10.5826 77.1503 11.0813C78.3707 11.5799 79.4365 12.2763 80.3475 13.1704C81.2586 14.0472 81.9634 15.0875 82.4619 16.2911C82.9776 17.4947 83.2354 18.81 83.2354 20.2371C83.2354 21.647 82.9776 22.9624 82.4619 24.1831C81.9462 25.3867 81.2328 26.4356 80.3218 27.3296C79.4107 28.2237 78.345 28.9201 77.1245 29.4187C75.9212 29.9174 74.6062 30.1667 73.1795 30.1667ZM73.1795 26.9686C74.1249 26.9686 74.993 26.8052 75.7837 26.4785C76.5744 26.1347 77.262 25.6618 77.8465 25.06C78.4481 24.4582 78.9036 23.7447 79.213 22.9194C79.5396 22.0941 79.7029 21.2 79.7029 20.2371C79.7029 19.2742 79.5396 18.3887 79.213 17.5806C78.9036 16.7553 78.4481 16.0418 77.8465 15.44C77.262 14.821 76.5744 14.3481 75.7837 14.0215C74.993 13.6948 74.1249 13.5314 73.1795 13.5314C72.2512 13.5314 71.3917 13.6948 70.601 14.0215C69.8103 14.3481 69.1141 14.821 68.5125 15.44C67.928 16.0418 67.4725 16.7553 67.1459 17.5806C66.8193 18.3887 66.656 19.2742 66.656 20.2371C66.656 21.2 66.8193 22.0941 67.1459 22.9194C67.4725 23.7447 67.928 24.4582 68.5125 25.06C69.1141 25.6618 69.8103 26.1347 70.601 26.4785C71.3917 26.8052 72.2512 26.9686 73.1795 26.9686Z" fill="#404040"/>
<path d="M83.5172 29.8572V10.6428H86.8692L94.0631 20.4176H92.4644L99.5036 10.6428H102.856V29.8572H99.3231V14.6404L100.69 14.9757L93.3927 24.699H92.9801L85.8636 14.9757L87.0239 14.6404V29.8572H83.5172Z" fill="#404040"/>
<path d="M113.158 30.1667C111.749 30.1667 110.434 29.9174 109.213 29.4187C107.993 28.9201 106.927 28.2237 106.016 27.3296C105.105 26.4356 104.392 25.3867 103.876 24.1831C103.378 22.9624 103.128 21.647 103.128 20.2371C103.128 18.81 103.378 17.4947 103.876 16.2911C104.375 15.0875 105.079 14.0386 105.99 13.1446C106.901 12.2505 107.967 11.5627 109.188 11.0813C110.408 10.5826 111.732 10.3333 113.158 10.3333C114.585 10.3333 115.909 10.5826 117.129 11.0813C118.35 11.5799 119.416 12.2763 120.327 13.1704C121.238 14.0472 121.942 15.0875 122.441 16.2911C122.957 17.4947 123.214 18.81 123.214 20.2371C123.214 21.647 122.957 22.9624 122.441 24.1831C121.925 25.3867 121.212 26.4356 120.301 27.3296C119.39 28.2237 118.324 28.9201 117.103 29.4187C115.9 29.9174 114.585 30.1667 113.158 30.1667ZM113.158 26.9686C114.104 26.9686 114.972 26.8052 115.763 26.4785C116.553 26.1347 117.241 25.6618 117.825 25.06C118.427 24.4582 118.883 23.7447 119.192 22.9194C119.519 22.0941 119.682 21.2 119.682 20.2371C119.682 19.2742 119.519 18.3887 119.192 17.5806C118.883 16.7553 118.427 16.0418 117.825 15.44C117.241 14.821 116.553 14.3481 115.763 14.0215C114.972 13.6948 114.104 13.5314 113.158 13.5314C112.23 13.5314 111.371 13.6948 110.58 14.0215C109.789 14.3481 109.093 14.821 108.491 15.44C107.907 16.0418 107.452 16.7553 107.125 17.5806C106.798 18.3887 106.635 19.2742 106.635 20.2371C106.635 21.2 106.798 22.0941 107.125 22.9194C107.452 23.7447 107.907 24.4582 108.491 25.06C109.093 25.6618 109.789 26.1347 110.58 26.4785C111.371 26.8052 112.23 26.9686 113.158 26.9686Z" fill="#404040"/>
<path d="M123.496 29.8572V10.6428H127.003V20.6498L126.049 20.3145L134.223 10.6428H138.632L130.974 19.7213L131.18 17.2453L138.864 29.8572H134.738L129.581 21.3977L127.003 24.4668V29.8572H123.496Z" fill="#404040"/>
<path d="M145.56 30.1667C144.082 30.1667 142.767 29.8572 141.615 29.2382C140.481 28.6192 139.587 27.7681 138.934 26.6849C138.28 25.6016 137.954 24.3723 137.954 22.9967V10.6428H141.461V22.8162C141.461 23.6071 141.632 24.3207 141.976 24.9569C142.337 25.593 142.827 26.0917 143.446 26.4528C144.065 26.7966 144.77 26.9686 145.56 26.9686C146.368 26.9686 147.073 26.7966 147.675 26.4528C148.293 26.0917 148.775 25.593 149.119 24.9569C149.48 24.3207 149.66 23.6071 149.66 22.8162V10.6428H153.167V22.9967C153.167 24.3723 152.84 25.6016 152.187 26.6849C151.534 27.7681 150.631 28.6192 149.48 29.2382C148.345 29.8572 147.039 30.1667 145.56 30.1667Z" fill="#404040"/>
<path d="M13.3333 0H0V26.6667H13.3333V40H16.9009H40V39.989V26.6667H26.6777C26.6777 19.309 32.6423 13.3444 40 13.3444V0C25.2724 0 13.3333 11.9391 13.3333 26.6667V0Z" fill="#404040"/>
</svg>
